# Blender 4.5.0 Beta
# www.blender.org
o Plane
v -1.298270 0.000000 0.700382
v 1.298270 0.000000 0.700382
v -1.298270 0.000000 -0.700382
v 1.298270 0.000000 -0.700382
v -1.138392 0.255227 -0.537060
v -1.138392 0.255227 0.537060
v 1.138392 0.255227 0.537060
v 1.138392 0.255227 -0.537060
vn -0.8475 0.5309 -0.0000
vn -0.0000 0.5390 0.8423
vn 0.8475 0.5309 -0.0000
vn -0.0000 0.5390 -0.8423
vt 0.165179 0.165179
vt 0.165179 0.834821
vt 0.000000 1.000000
vt 0.000000 0.000000
vt 0.834821 0.165179
vt 1.000000 0.000000
vt 0.834821 0.834821
vt 1.000000 1.000000
s 0
f 6/1/1 5/2/1 3/3/1 1/4/1
f 7/5/2 6/1/2 1/4/2 2/6/2
f 8/7/3 7/5/3 2/6/3 4/8/3
f 5/2/4 8/7/4 4/8/4 3/3/4
